<?xml version="1.0" encoding="utf-8"?>
<svg viewBox="70 19.947 302.196 333.598" xmlns="http://www.w3.org/2000/svg" xmlns:bx="https://boxy-svg.com">
  <rect x="100" y="49.921" width="100" height="150.079" style="fill: rgb(216, 216, 216); stroke: rgb(0, 0, 0);"/>
  <text style="white-space: pre; fill: rgb(51, 51, 51); font-family: Arial, sans-serif; font-size: 10.6px;" x="100" y="44.927">Call Stack</text>
  <rect x="239.677" y="49.921" width="100" height="150.079" style="stroke: rgb(0, 0, 0); fill: rgb(190, 117, 233);"/>
  <text style="white-space: pre; fill: rgb(51, 51, 51); font-family: Arial, sans-serif; font-size: 10.6px;" x="238.971" y="44.628">APIs Aync</text>
  <rect x="200" y="238.545" width="142.196" height="100" style="stroke: rgb(0, 0, 0); fill: rgb(235, 218, 140);"/>
  <text style="white-space: pre; fill: rgb(51, 51, 51); font-family: Arial, sans-serif; font-size: 10.6px;" x="200.016" y="231.003">Callback Queue</text>
  <path d="M 134.337 280.75 Q 134.337 280.18 134.856 279.85 Q 135.411 279.499 136.136 279.711 Q 136.942 279.947 137.453 280.75 Q 138.027 281.652 137.935 282.827 Q 137.832 284.142 136.934 285.248 Q 135.939 286.472 134.337 286.982 Q 132.581 287.541 130.702 287.047 Q 128.66 286.51 127.141 284.905 Q 125.503 283.175 124.989 280.75 Q 124.438 278.154 125.342 275.557 Q 126.304 272.792 128.624 270.855 Q 131.082 268.804 134.337 268.286 Q 137.77 267.739 141.089 269.056 Q 144.575 270.44 146.931 273.479 Q 149.397 276.663 149.917 280.75 Q 150.461 285.019 148.73 289.06 Q 146.926 293.269 143.166 296.042 Q 139.258 298.924 134.337 299.447 Q 129.233 299.988 124.469 297.841 Q 119.538 295.619 116.346 291.137 Q 113.048 286.505 112.524 280.75 Q 111.984 274.811 114.547 269.324 Q 117.188 263.67 122.392 260.061 Q 127.748 256.346 134.337 255.821 Q 141.111 255.282 147.321 258.262 Q 153.698 261.321 157.725 267.247 Q 161.857 273.326 162.382 280.75 Q 162.92 288.359 159.524 295.292 Q 156.046 302.391 149.398 306.837 Q 142.595 311.385 134.337 311.911 Q 125.893 312.448 118.237 308.636 Q 110.415 304.74 105.552 297.369 Q 100.586 289.843 100.06 280.75 Q 99.523 271.471 103.753 263.092 Q 108.066 254.547 116.16 249.266 Q 124.409 243.884 134.337 243.357 Q 133.963 243.377 134.337 243.357" style="stroke: rgb(0, 0, 0); fill: rgb(19, 195, 116);" bx:shape="spiral 134.337 280.75 0 37.393 0 1080 1@c9ad97ec"/>
  <text style="white-space: pre; fill: rgb(51, 51, 51); font-family: Arial, sans-serif; font-size: 10.6px;" x="106.187" y="331.121">Event-loop</text>
  <text style="fill: rgb(0, 124, 25); font-family: Arial, sans-serif; font-size: 10.6px; white-space: pre;" x="110.77" y="189.545">main()</text>
  <text style="fill: rgb(0, 124, 25); font-family: Arial, sans-serif; font-size: 10.6px; white-space: pre;" x="110.861" y="176.006">fs.readFile(...,cb)</text>
  <path d="M 206.97 164.7915 H 251.262 L 251.262 157.761 L 265.13 169.7915 L 251.262 181.822 L 251.262 174.7915 H 206.97 V 164.7915 Z" style="fill: rgb(255, 0, 0); stroke: rgb(123, 0, 0);" transform="matrix(1, 0.000062, -0.000062, 1, 0.010692, -0.013194)" bx:shape="arrow 206.97 157.761 58.16 24.061 10 13.868 0 1@b44a2888"/>
</svg>