<svg width="2067" height="1631" xmlns="http://www.w3.org/2000/svg" xmlns:xlink="http://www.w3.org/1999/xlink" xml:space="preserve" overflow="hidden"><defs><clipPath id="clip0"><rect x="1109" y="252" width="2067" height="1631"/></clipPath></defs><g clip-path="url(#clip0)" transform="translate(-1109 -252)"><rect x="1114.5" y="264.5" width="772" height="934" stroke="#000000" stroke-width="4.58333" stroke-linecap="butt" stroke-linejoin="miter" stroke-miterlimit="8" stroke-opacity="1" fill="#000000" fill-opacity="1"/><text fill="#FFFFFF" fill-opacity="1" font-family="Calibri,Calibri_MSFontService,sans-serif" font-style="normal" font-variant="normal" font-weight="400" font-stretch="normal" font-size="83" text-anchor="start" direction="ltr" writing-mode="lr-tb" unicode-bidi="normal" text-decoration="none" transform="matrix(1 0 0 1 1341.99 358)">Call Stack</text><rect x="2400.5" y="264.5" width="771" height="934" stroke="#AE5A21" stroke-width="4.58333" stroke-linecap="butt" stroke-linejoin="miter" stroke-miterlimit="8" stroke-opacity="1" fill="#ED7D31" fill-opacity="1"/><text fill="#FFFFFF" fill-opacity="1" font-family="Calibri,Calibri_MSFontService,sans-serif" font-style="normal" font-variant="normal" font-weight="400" font-stretch="normal" font-size="83" text-anchor="start" direction="ltr" writing-mode="lr-tb" unicode-bidi="normal" text-decoration="none" transform="matrix(1 0 0 1 2714.26 358)">APIs</text><rect x="2225.5" y="1389.5" width="946" height="490" stroke="#BC8C00" stroke-width="4.58333" stroke-linecap="butt" stroke-linejoin="miter" stroke-miterlimit="8" stroke-opacity="1" fill="#FFC000" fill-opacity="1"/><text fill="#FFFFFF" fill-opacity="1" font-family="Calibri,Calibri_MSFontService,sans-serif" font-style="normal" font-variant="normal" font-weight="400" font-stretch="normal" font-size="83" text-anchor="start" direction="ltr" writing-mode="lr-tb" unicode-bidi="normal" text-decoration="none" transform="matrix(1 0 0 1 2483 1483)">Event Queue</text><path d="M1223.5 1604C1223.5 1451.85 1347.52 1328.5 1500.5 1328.5 1653.48 1328.5 1777.5 1451.85 1777.5 1604 1777.5 1756.15 1653.48 1879.5 1500.5 1879.5 1347.52 1879.5 1223.5 1756.15 1223.5 1604Z" stroke="#2F528F" stroke-width="4.58333" stroke-linecap="butt" stroke-linejoin="miter" stroke-miterlimit="8" stroke-opacity="1" fill="#4472C4" fill-rule="evenodd" fill-opacity="1"/><text fill="#FFFFFF" fill-opacity="1" font-family="Calibri,Calibri_MSFontService,sans-serif" font-style="normal" font-variant="normal" font-weight="400" font-stretch="normal" font-size="83" text-anchor="start" direction="ltr" writing-mode="lr-tb" unicode-bidi="normal" text-decoration="none" transform="matrix(1 0 0 1 1407.11 1581)">Event <tspan fill="#FFFFFF" fill-opacity="1" font-family="Calibri,Calibri_MSFontService,sans-serif" font-style="normal" font-variant="normal" font-weight="400" font-stretch="normal" font-size="83" text-anchor="start" direction="ltr" writing-mode="lr-tb" unicode-bidi="normal" text-decoration="none" x="10.2896" y="99">Loop</tspan></text><path d="M1310.94 1540C1310.94 1453.26 1395.81 1382.94 1500.5 1382.94 1580.52 1382.94 1651.93 1424.57 1678.94 1486.99L1699 1486.99 1667.63 1540 1609.25 1486.99 1628.01 1486.99C1590.26 1432.38 1502.55 1411.85 1432.13 1441.13 1385.14 1460.66 1355.81 1498.66 1355.81 1540Z" stroke="#000000" stroke-width="4.58333" stroke-linecap="butt" stroke-linejoin="miter" stroke-miterlimit="8" stroke-opacity="1" fill="#000000" fill-rule="evenodd" fill-opacity="1"/><path d="M1694.06 1670C1694.06 1756.74 1609.19 1827.06 1504.5 1827.06 1424.48 1827.06 1353.07 1785.43 1326.06 1723.01L1306 1723.01 1337.37 1670 1395.75 1723.01 1376.99 1723.01C1414.74 1777.62 1502.45 1798.15 1572.87 1768.87 1619.86 1749.34 1649.19 1711.34 1649.19 1670Z" stroke="#000000" stroke-width="4.58333" stroke-linecap="butt" stroke-linejoin="miter" stroke-miterlimit="8" stroke-opacity="1" fill="#000000" fill-rule="evenodd" fill-opacity="1"/></g></svg>